<?xml version="1.0" encoding="utf-8"?>
<!-- Generator: Adobe Illustrator 27.2.0, SVG Export Plug-In . SVG Version: 6.00 Build 0)  -->
<svg version="1.1" id="Calque_1" xmlns="http://www.w3.org/2000/svg" xmlns:xlink="http://www.w3.org/1999/xlink" x="0px" y="0px"
	 viewBox="0 0 501.3 143.9" style="enable-background:new 0 0 501.3 143.9;" xml:space="preserve">
<style type="text/css">
	.st0{fill:#020203;}
	.st1{fill:#CD9F88;}
</style>
<g>
	<g>
		<path class="st0" d="M38.4,7.7c22.4,0,35.2,7,35.2,27.4c0,5.4-2.1,14.5-10.1,20.7L76,83.6H51.8l-9.3-22.7h-8.8v22.7H11.5V7.7H38.4
			z M33.6,44.8h8c7.6,0,9.4-5.6,9.4-10.2c0-4.4-2.4-9.7-9.4-9.7h-8V44.8z"/>
		<path class="st0" d="M138.9,7.7v17.4H105V37h26.4v16.9H105v12.4h33.5v17.3H82.9V7.7H138.9z"/>
		<path class="st0" d="M180.2,6.4c24,0,36.8,13.7,36.8,39.2c0,17.2-5.5,29-16,34.9l13.7,14.9h-26.1l-9.6-10.5
			c-23.2-0.5-35.5-14.1-35.5-39.2C143.4,20.1,156.2,6.4,180.2,6.4z M180.2,67.5c9.7,0,14.2-6.6,14.2-21.8c0-15.2-4.5-21.8-14.2-21.8
			c-9.6,0-14.2,6.6-14.2,21.8C166,60.8,170.6,67.5,180.2,67.5z"/>
		<path class="st0" d="M258.2,84.8c-21.4,0-33.4-10.6-33.4-31V7.7h22.1v47.2c0,8.2,4.4,12.5,11.3,12.5s11.3-4.3,11.3-12.5V7.7h22.1
			v46C291.6,74.2,279.5,84.8,258.2,84.8z"/>
		<path class="st0" d="M302.8,7.7h22.1v75.9h-22.1V7.7z"/>
		<path class="st0" d="M393,7.7v17.4H359V37h26.4v16.9H359v12.4h33.5v17.3h-55.6V7.7H393z"/>
		<path class="st0" d="M434.9,83.7l-10.4-49.6h-1.1v49.5h-21.5V7.7h31.6l13.1,51.6h1.1l13.1-51.6H492v75.9h-21.5V34.1h-1.2
			l-11.1,49.6H434.9z"/>
	</g>
	<g>
		<path class="st0" d="M38.9,99.8v8.5H22.5v7.6h13.9v8.4H22.5V137H11.7V99.8H38.9z"/>
		<path class="st0" d="M58.7,99.2c11.8,0,18,6.7,18,19.2s-6.3,19.2-18,19.2c-11.8,0-18-6.7-18-19.2S46.9,99.2,58.7,99.2z
			 M58.7,129.2c4.8,0,7-3.3,7-10.8c0-7.4-2.2-10.7-7-10.7c-4.7,0-7,3.3-7,10.7C51.7,125.9,54,129.2,58.7,129.2z"/>
		<path class="st0" d="M94.2,99.8c11,0,17.3,3.4,17.3,13.4c0,2.6-1,7.1-5,10.1l6.2,13.6h-11.9l-4.5-11.1h-4.3V137H81V99.8H94.2z
			 M91.9,118h3.9c3.7,0,4.6-2.7,4.6-5c0-2.2-1.2-4.8-4.6-4.8h-3.9V118z"/>
		<path class="st0" d="M134.3,99.8h14.4l11.9,37.3h-11.3l-1.8-6.7h-11.9l-1.8,6.7h-11.3L134.3,99.8z M137.9,121.9h7.3l-3.4-13.6
			h-0.5L137.9,121.9z"/>
	</g>
	<g>
		<path class="st1" d="M172.9,137V99.8h15.5c10.2,0,17.4,6.2,17.4,18.7c0,12.5-7.2,18.6-17.4,18.6H172.9z M187.2,108.3h-3.4v20.2
			h3.4c5.6,0,7.6-4,7.6-10.1C194.8,112.4,192.8,108.3,187.2,108.3z"/>
		<path class="st1" d="M223.3,99.8c11,0,17.3,3.4,17.3,13.4c0,2.6-1,7.1-5,10.1l6.2,13.6h-11.9l-4.5-11.1H221V137h-10.9V99.8H223.3z
			 M221,118h3.9c3.7,0,4.6-2.7,4.6-5c0-2.2-1.2-4.8-4.6-4.8H221V118z"/>
		<path class="st1" d="M272.6,99.8v8.5H256v5.8h13v8.3h-13v6.1h16.4v8.5h-27.3V99.8H272.6z"/>
		<path class="st1" d="M285.4,99.8h14.4l11.9,37.3h-11.3l-1.8-6.7h-11.9l-1.8,6.7h-11.3L285.4,99.8z M288.9,121.9h7.3l-3.4-13.6
			h-0.5L288.9,121.9z"/>
		<path class="st1" d="M330.3,137.1l-5.1-24.3h-0.5V137h-10.5V99.8h15.5l6.4,25.3h0.5l6.4-25.3h15.4V137h-10.5v-24.3h-0.6l-5.4,24.3
			H330.3z"/>
	</g>
</g>
</svg>
